<svg viewBox="0 0 80 65" fill="none" xmlns="http://www.w3.org/2000/svg">
<path fill-rule="evenodd" clip-rule="evenodd" d="M0 16.6082C0 7.7716 7.16344 0.608154 16 0.608154H64C72.8366 0.608154 80 7.7716 80 16.6082V48.6082C80 57.4447 72.8366 64.6082 64 64.6082H16C7.16344 64.6082 0 57.4447 0 48.6082V16.6082ZM16 4.60815H64C67.2615 4.60815 70.2191 5.9093 72.382 8.02082L40.0003 33.9262L7.61827 8.02056C9.78117 5.90919 12.7386 4.60815 16 4.60815ZM5.30242 11.1654C4.46961 12.7991 4 14.6488 4 16.6082V48.6082C4 50.6016 4.48608 52.4815 5.34619 54.1359L32.5632 32.9741L5.30242 11.1654ZM16 60.6082C12.8076 60.6082 9.90639 59.3616 7.75654 57.3286L35.7751 35.5436L36.8768 36.425C38.6019 37.805 41.3987 37.805 43.1238 36.425L44.2251 35.5439L72.2434 57.3287C70.0936 59.3616 67.1924 60.6082 64 60.6082H16ZM74.6538 54.136C75.5139 52.4816 76 50.6017 76 48.6082V16.6082C76 14.6489 75.5305 12.7993 74.6978 11.1658L47.437 32.9744L74.6538 54.136Z" fill="tomato"/>
</svg>
